<?xml version="1.0" standalone="no"?>
<!DOCTYPE svg PUBLIC "-//W3C//DTD SVG 20010904//EN"
 "http://www.w3.org/TR/2001/REC-SVG-20010904/DTD/svg10.dtd">
<svg version="1.0" xmlns="http://www.w3.org/2000/svg"
 width="100.000000pt" height="40.000000pt" viewBox="0 0 220.000000 75.000000"
 preserveAspectRatio="xMidYMid meet">

<g transform="translate(0.000000,75.000000) scale(0.100000,-0.100000)"
fill="#000000" stroke="none">
<path d="M80 661 c0 -5 7 -14 15 -21 22 -19 22 -501 0 -520 -28 -23 -15 -30
60 -30 75 0 88 7 60 30 -12 10 -15 37 -15 120 0 93 2 109 19 124 19 18 21 15
82 -105 35 -68 68 -133 74 -144 8 -16 23 -21 68 -23 61 -3 71 6 35 31 -13 8
-57 83 -102 174 l-79 160 69 83 c38 45 81 88 96 96 42 22 34 34 -23 34 -47 0
-51 -2 -46 -21 4 -16 -18 -48 -91 -136 l-97 -115 -3 113 c-2 89 0 115 13 129
8 9 15 20 15 23 0 4 -34 7 -75 7 -41 0 -75 -4 -75 -9z"/>
<path d="M1025 648 c-63 -24 -63 -25 -37 -44 22 -15 22 -20 22 -240 0 -211 -1
-225 -20 -244 -11 -11 -20 -22 -20 -25 0 -3 36 -5 80 -5 82 0 95 6 60 28 -19
12 -20 23 -20 276 0 146 -3 267 -7 269 -5 2 -30 -5 -58 -15z"/>
<path d="M1171 627 c-17 -17 -13 -31 18 -61 l29 -28 31 23 c32 24 40 52 19 66
-20 12 -85 12 -97 0z"/>
<path d="M1532 500 c-18 -11 -35 -27 -38 -35 -10 -26 -24 -16 -24 16 0 29 -2
31 -27 24 -15 -3 -43 -13 -62 -22 l-36 -15 23 -15 c21 -15 22 -21 22 -169 0
-141 -1 -154 -20 -167 -11 -8 -17 -17 -13 -20 9 -10 153 -9 153 1 0 4 -10 16
-21 26 -20 17 -21 25 -17 130 4 87 10 120 27 153 25 49 60 76 93 71 19 -2 24
-10 26 -40 2 -21 6 -38 9 -38 3 0 21 11 39 25 32 25 33 27 19 49 -31 48 -98
59 -153 26z"/>
<path d="M635 494 c-45 -23 -47 -27 -30 -68 15 -35 35 -41 35 -10 0 8 11 26
25 39 43 44 133 25 95 -20 -6 -7 -35 -21 -63 -31 -109 -35 -157 -86 -157 -165
0 -117 126 -186 233 -129 46 25 47 25 47 0 0 -18 7 -20 53 -20 62 0 75 8 47
27 -18 13 -20 26 -20 126 0 62 -4 128 -10 146 -11 39 -51 86 -92 107 -36 19
-126 18 -163 -2z m179 -90 c12 -31 6 -175 -8 -209 -17 -39 -68 -75 -107 -75
-41 0 -72 41 -77 102 -5 70 23 113 96 149 29 14 58 31 64 37 16 16 25 15 32
-4z"/>
<path d="M1200 488 c-45 -20 -45 -20 -22 -35 21 -15 22 -21 22 -169 0 -143 -1
-155 -20 -166 -35 -22 -22 -28 60 -28 44 0 80 2 80 5 0 3 -9 14 -20 25 -19 19
-20 33 -20 205 0 209 4 201 -80 163z"/>
<path d="M1822 492 c-31 -15 -33 -20 -28 -51 8 -52 22 -59 39 -18 9 19 24 40
35 46 30 16 78 13 93 -5 11 -14 10 -18 -6 -30 -11 -8 -44 -22 -74 -31 -33 -11
-72 -34 -99 -58 -39 -36 -45 -46 -49 -90 -5 -61 17 -110 66 -142 44 -30 122
-31 169 -3 40 25 42 25 42 0 0 -18 7 -20 60 -20 63 0 73 7 40 28 -18 11 -20
23 -20 135 0 147 -18 197 -85 234 -49 28 -134 30 -183 5z m186 -188 l-3 -116
-38 -34 c-74 -68 -152 -28 -152 79 0 69 25 102 112 148 37 20 72 37 76 38 5 0
7 -51 5 -115z"/>
</g>
</svg>
